<?xml version="1.0" encoding="UTF-8"?>
<svg id="Layer_2" data-name="Layer 2" xmlns="http://www.w3.org/2000/svg" viewBox="0 0 1374.15 419.97">
  <defs>
    <style>
      .cls-1 {
        fill: #194895;
      }

      .cls-2 {
        fill: #eca820;
      }
    </style>
  </defs>
  <g id="Layer_1-2" data-name="Layer 1">
    <g>
      <path class="cls-1" d="M167.61,67.35l-12.82,25.56c-15.55-11.57-30.79-17.35-45.73-17.35-23.69,0-42.37,8.37-56.07,25.09-13.7,16.73-20.55,38.88-20.55,66.45s6.73,47.35,20.16,63.35c13.44,16,31.74,24.01,54.92,24.01,16.48,0,29.81-4.95,40.01-14.86v-53.13h-31.36v-26.33h62.25v98.83c-8.24,7.02-19.72,12.68-34.45,16.96-14.73,4.28-29.04,6.44-42.94,6.44-31.21,0-55.84-10.62-73.92-31.84C9.04,229.29,0,201.08,0,165.86s9.91-63.59,29.74-85.43c19.82-21.84,46.58-32.76,80.25-32.76,23.58,0,42.79,6.56,57.62,19.67"/>
      <path class="cls-1" d="M309.2,140.93c-6.39-4.44-12.82-6.66-19.31-6.66-10.4,0-19.49,4.8-27.27,14.41-7.78,9.6-11.66,21.17-11.66,34.69v95.11h-29.35V112.59h29.35v26.49c10.71-19.72,26.62-29.59,47.73-29.59,5.26,0,12.83.92,22.71,2.79l-12.2,28.66h0Z"/>
      <path class="cls-1" d="M432.55,259.41c-11.74,14.77-29.71,22.15-53.91,22.15-12.98,0-24.23-4.73-33.76-14.17-9.52-9.45-14.29-21.19-14.29-35.24,0-16.83,7.33-31.06,22.01-42.67,14.67-11.62,33.39-17.42,56.15-17.42,6.18,0,13.18,1.34,21.01,4.03,0-26.86-11.95-40.27-35.84-40.27-18.33,0-32.44,4.95-42.33,14.86l-12.36-24.63c5.57-4.54,13.26-8.44,23.1-11.69,9.83-3.25,19.23-4.88,28.2-4.88,23.99,0,41.42,5.48,52.28,16.42,10.87,10.95,16.3,28.35,16.3,52.2v59.48c0,14.57,4.33,24.27,12.98,29.12v14.72c-11.95,0-20.88-1.71-26.8-5.11-5.93-3.4-10.16-9.04-12.74-16.88M429.77,196.99c-9.27-2.06-15.76-3.1-19.47-3.1-14.82,0-26.93,3.82-36.3,11.46-9.37,7.64-14.06,16.68-14.06,27.11,0,17.25,10.14,25.87,30.43,25.87,14.83,0,27.96-7.08,39.39-21.22v-40.12h0Z"/>
      <path class="cls-1" d="M873.04,231.53V44.57h29.35v182c0,8.89,2.55,15.88,7.65,20.99,5.1,5.11,11.76,7.67,20,7.67v26.33c-37.99,0-57-16.67-57-50.03"/>
      <path class="cls-1" d="M1167.54,278.47v-96.5c0-17.66-2.66-30.03-7.95-37.1-5.32-7.07-14.19-10.62-26.65-10.62-6.69,0-13.71,2.01-21.01,6.04-7.32,4.03-12.92,8.98-16.84,14.86v123.3h-29.35V112.59h20.08l9.27,21.37c9.67-16.31,25.48-24.47,47.42-24.47,36.24,0,54.38,22.09,54.38,66.3v102.7h-29.35Z"/>
      <path class="cls-1" d="M1342.33,278.46l-51.9-83.02-25.65,26.49v56.53h-29.35V44.57h29.35v145.14l63.34-77.14h34.29l-52.98,63.04,64.72,102.85h-31.82Z"/>
      <path class="cls-2" d="M644.11,287.36h-45.78V59.43c29.18-1.03,47.84-1.56,56.02-1.56,31.76,0,56.9,9.67,75.41,29.02,18.52,19.34,27.78,45.1,27.78,77.25,0,82.14-37.81,123.22-113.43,123.22M629.37,87.43v170.37c6.93,1.04,15.52,1.56,25.75,1.56,21.73,0,38.79-8.17,51.2-24.51,12.42-16.34,18.62-39.03,18.62-68.07,0-53.93-24.15-80.91-72.46-80.91-2.9,0-10.6.52-23.13,1.56h0Z"/>
      <path d="M901.78,397.12l-108.14-106.7c28.31-30.85,45.71-71.64,45.71-116.54,0-96.03-78.9-173.88-176.22-173.88s-176.21,77.84-176.21,173.88,78.89,173.88,176.21,173.88c42.05,0,80.61-14.58,110.91-38.83l108.56,107.11c5.28,5.23,13.88,5.23,19.16,0,5.3-5.23,5.3-13.7.02-18.93M663.13,321.02c-82.35,0-149.09-65.87-149.09-147.12S580.79,26.77,663.13,26.77s149.09,65.87,149.09,147.12-66.76,147.12-149.09,147.12Z"/>
      <path class="cls-1" d="M982.62,62.96c0-4.72,1.44-8.71,4.33-11.96,2.89-3.25,7.16-4.88,12.83-4.88s9.97,1.63,12.91,4.88c2.94,3.25,4.41,7.24,4.41,11.96s-1.47,8.66-4.41,11.81c-2.94,3.15-7.24,4.72-12.91,4.72s-9.94-1.57-12.83-4.72c-2.89-3.15-4.33-7.08-4.33-11.81ZM1014.1,278.46h-29.12V108.14h29.12v170.33Z"/>
    </g>
  </g>
</svg>